HIERARCHY
ROOT ui
{
	 OFFSET 0 0 0
	 CHANNELS 3 XPosition YPosition Z Position
	 EndSite
	 {
	 OFFSET 0 -1 0
	 }
}
ROOT li
{
	 OFFSET 0 0 0
	 CHANNELS 3 XPosition YPosition Z Position
	 EndSite
	 {
	 OFFSET 0 -1 0
	 }
}
ROOT ul
{
	 OFFSET 0 0 0
	 CHANNELS 3 XPosition YPosition Z Position
	 EndSite
	 {
	 OFFSET 0 -1 0
	 }
}
ROOT ll
{
	 OFFSET 0 0 0
	 CHANNELS 3 XPosition YPosition Z Position
	 EndSite
	 {
	 OFFSET 0 -1 0
	 }
}
ROOT tt
{
	 OFFSET 0 0 0
	 CHANNELS 3 XPosition YPosition Z Position
	 EndSite
	 {
	 OFFSET 0 -1 0
	 }
}
ROOT tb
{
	 OFFSET 0 0 0
	 CHANNELS 3 XPosition YPosition Z Position
	 EndSite
	 {
	 OFFSET 0 -1 0
	 }
}
ROOT td
{
	 OFFSET 0 0 0
	 CHANNELS 3 XPosition YPosition Z Position
	 EndSite
	 {
	 OFFSET 0 -1 0
	 }
}
ROOT v
{
	 OFFSET 0 0 0
	 CHANNELS 3 XPosition YPosition Z Position
	 EndSite
	 {
	 OFFSET 0 -1 0
	 }
}
ROOT bn
{
	 OFFSET 0 0 0
	 CHANNELS 3 XPosition YPosition Z Position
	 EndSite
	 {
	 OFFSET 0 -1 0
	 }
}
MOTION
Frames: 24
Frame Time: 0.002
0.003137653112411499	-0.0018601200580596923	0		0.6890161743164063	-2.643137939453125	0		-0.9566090698242188	0.27948526000976565	0		-0.132314453125	-3.259488525390625	0		1.5587476806640626	-0.6372618408203125	0		3.0660205078125	-0.6230479125976562	0		4.3741630859375	-0.364467041015625	0		5.8917548828125	0.3000505981445313	0		-0.5251517944335937	5.82377978515625	0		
0.0030250790119171144	-0.0018507579565048217	0		0.6998568115234375	-2.650248291015625	0		-0.9567255249023437	0.2794813537597656	0		-0.11441863250732422	-3.26269287109375	0		1.508529541015625	-0.6466409301757813	0		3.054188232421875	-0.5998563842773438	0		4.370185546875	-0.3533508911132813	0		5.90578759765625	0.26866238403320314	0		-0.491288330078125	5.828380859375	0		
0.0029249939918518067	-0.0018485989570617676	0		0.6669435424804687	-2.635853271484375	0		-0.9527926635742188	0.28242910766601564	0		-0.11623528289794922	-3.240669677734375	0		1.5293974609375	-0.6498748168945313	0		3.057481201171875	-0.5668692626953125	0		4.3743701171875	-0.32936520385742185	0		5.8936845703125	0.28811715698242185	0		-0.4914315490722656	5.82837939453125	0		
0.0058846321105957035	0.0021098430156707764	0		0.6839660034179688	-2.627058837890625	0		-0.9569154663085937	0.2794686889648437	0		-0.12212765502929687	-3.224606201171875	0		1.5331815185546875	-0.6609242553710938	0		3.06755908203125	-0.5529882202148437	0		4.37550732421875	-0.3103760986328125	0		5.88997314453125	0.27092901611328124	0		-0.35829159545898437	5.8478046875	0		
0.002762686014175415	-0.0018692859411239624	0		0.6818602905273438	-2.6290517578125	0		-0.9620364990234375	0.27551577758789064	0		-0.12801095581054686	-3.20755126953125	0		1.532939697265625	-0.6749422607421875	0		3.0777763671875	-0.5281310424804687	0		4.3735966796875	-0.29638037109375	0		5.89776416015625	0.2706509704589844	0		-0.35835040283203123	5.84779052734375	0		
0.002698270082473755	-0.0018934119939804078	0		0.6817775268554688	-2.62908056640625	0		-0.9341952514648437	0.2671689147949219	0		-0.11996863555908203	-3.19666943359375	0		1.5275880126953125	-0.6989164428710938	0		3.056016357421875	-0.5019190979003906	0		4.37068359375	-0.2834005432128906	0		5.8914423828125	0.3001292724609375	0		-0.5067173461914063	5.819515625	0		
-0.02334398651123047	-6.206259727478027E-4	0		0.6327783203125	-2.62154443359375	0		-0.9661986694335938	0.2715227355957031	0		-0.16980892944335937	-3.175113525390625	0		1.527347412109375	-0.7139663696289062	0		3.048203125	-0.48089419555664065	0		4.367978515625	-0.2534499206542969	0		5.8914013671875	0.2999564208984375	0		-0.49160302734375	5.82831005859375	0		
0.005640916824340821	0.0019931399822235105	0		0.6886975708007812	-2.621259521484375	0		-0.962196044921875	0.2754461975097656	0		-0.15063563537597657	-3.152380859375	0		1.553120849609375	-0.7283397216796875	0		3.0794169921875	-0.4583524475097656	0		4.364068359375	-0.2415141296386719	0		5.90912890625	0.2853741760253906	0		-0.4754689331054687	5.836083984375	0		
0.0056001110076904295	0.0019392800331115723	0		0.6547864990234376	-2.605925048828125	0		-0.9302811889648438	0.271032470703125	0		-0.15045272827148437	-3.128433349609375	0		1.5378541259765626	-0.746244384765625	0		3.05574755859375	-0.4261832885742188	0		4.371330078125	-0.21573593139648437	0		5.89862841796875	0.3320986938476562	0		-0.35924072265625	5.848666015625	0		
0.0025205790996551515	-0.0020890069007873536	0		0.6765990600585937	-2.61426416015625	0		-0.9384017333984375	0.2630848388671875	0		-0.1482474822998047	-3.10251953125	0		1.534579833984375	-0.76530615234375	0		3.04488427734375	-0.41118679809570313	0		4.36455419921875	-0.19381700134277344	0		5.89131201171875	0.299094482421875	0		-0.49238092041015624	5.82918798828125	0		
-0.023489124298095704	-8.549309968948364E-4	0		0.6535695190429688	-2.609083251953125	0		-0.9034208374023438	0.262618408203125	0		-0.1331377716064453	-3.084769775390625	0		1.5412987060546874	-0.7855020141601563	0		3.045064208984375	-0.39334103393554687	0		4.354751953125	-0.17488639831542968	0		5.89913037109375	0.2967464294433594	0		-0.49225448608398437	5.8291259765625	0		
0.002484004020690918	-0.0022495460510253908	0		0.6784564819335938	-2.6114853515625	0		-0.9384239501953126	0.2629752807617188	0		-0.199662353515625	-3.03605712890625	0		1.5141937255859375	-0.7913096923828125	0		3.058181884765625	-0.381669189453125	0		4.35696044921875	-0.1561213836669922	0		5.891283203125	0.29826263427734373	0		-0.4779833374023438	5.83888720703125	0		
0.005531652927398682	0.001617563009262085	0		0.6325231323242188	-2.599054443359375	0		-0.903418212890625	0.2624894409179688	0		-0.181493896484375	-3.0143642578125	0		1.532108642578125	-0.7966673583984375	0		3.047565185546875	-0.348730712890625	0		4.36225390625	-0.13141319274902344	0		5.8949248046875	0.3132472534179688	0		-0.34456280517578125	5.85821533203125	0		
0.005548899173736572	0.001509835958480835	0		0.6755254516601562	-2.593697509765625	0		-0.9474852294921875	0.25493832397460936	0		-0.17723873901367188	-2.986515869140625	0		1.529064453125	-0.7997880859375	0		3.0637734375	-0.33212908935546875	0		4.35859033203125	-0.10461513519287109	0		5.89129296875	0.29726654052734375	0		-0.47759902954101563	5.838712890625	0		
0.005586182117462158	0.0013913090229034425	0		0.6406232299804687	-2.5814189453125	0		-0.9154898681640625	0.2504675140380859	0		-0.19473501586914063	-2.93941552734375	0		1.56784423828125	-0.8194240112304687	0		3.075087158203125	-0.30848284912109375	0		4.35679248046875	-0.09085507202148438	0		5.899154296875	0.29476416015625	0		-0.49148715209960936	5.828779296875	0		
0.0025972790718078614	-0.002701807975769043	0		0.6385595092773437	-2.584545654296875	0		-0.9554556274414062	0.24785073852539063	0		-0.2543731384277344	-2.905818359375	0		1.647869873046875	-0.8205692138671875	0		3.063317138671875	-0.2935721435546875	0		4.35907666015625	-0.07215625	0		5.8991943359375	0.2941961059570313	0		-0.5252900390625	5.824076171875	0		
-0.019271270751953125	0.0014227670431137085	0		0.626532470703125	-2.586562255859375	0		-0.9203804321289063	0.2463192138671875	0		-0.1830788269042969	-2.880809814453125	0		1.611927001953125	-0.8203297119140625	0		3.03462060546875	-0.2744653015136719	0		4.3552890625	-0.06139349365234375	0		5.89141455078125	0.29557366943359376	0		-0.356726318359375	5.8469228515625	0		
0.005832575798034668	9.685630202293396E-4	0		0.6316416015625	-2.579795166015625	0		-0.9763235473632812	0.24187393188476564	0		-0.24542922973632814	-2.828197509765625	0		1.584130126953125	-0.810194091796875	0		3.075884033203125	-0.26120965576171873	0		4.3606953125	-0.036744178771972655	0		5.8987841796875	0.3276488647460937	0		-0.4745745544433594	5.8362109375	0		
0.0059646620750427246	8.04286003112793E-4	0		0.6399185180664062	-2.562075439453125	0		-0.9150799560546875	0.2499967041015625	0		-0.21693028259277344	-2.791697021484375	0		1.579421630859375	-0.7953434448242187	0		3.06233740234375	-0.23429283142089843	0		4.36508056640625	-0.016081607818603516	0		5.90166943359375	0.31488232421875	0		-0.3430081481933594	5.85746923828125	0		
0.006125749111175537	6.276029944419861E-4	0		0.6120193481445313	-2.56192724609375	0		-0.9549462890625	0.24732891845703125	0		-0.25131184387207034	-2.748446044921875	0		1.5735030517578126	-0.800485107421875	0		3.06249267578125	-0.2345438995361328	0		4.3652412109375	-0.01636438179016113	0		5.8890673828125	0.33892413330078125	0		-0.5041910400390625	5.81826123046875	0		
0.00326888108253479	-0.003525324106216431	0		0.6282446899414063	-2.55532421875	0		-0.8459892578125	0.22683226013183594	0		-0.2437972412109375	-2.71771826171875	0		1.5667889404296875	-0.7916210327148437	0		3.06389892578125	-0.21680712890625	0		4.36766357421875	0.002334580898284912	0		5.8996669921875	0.2913729858398437	0		-0.5038852844238281	5.8180810546875	0		
0.0034911930561065674	-0.003728606939315796	0		0.6143836669921875	-2.559365234375	0		-0.9377081298828125	0.23176200866699218	0		-0.2311870880126953	-2.68306689453125	0		1.5980101318359374	-0.79122412109375	0		3.06828857421875	-0.20310298156738282	0		4.36705712890625	0.01608146286010742	0		5.89198876953125	0.2928400268554687	0		-0.34209381103515624	5.85691943359375	0		
0.006791967868804932	1.7635999247431754E-5	0		0.6196898803710937	-2.55364794921875	0		-0.895530517578125	0.22504022216796876	0		-0.22941796875	-2.639297607421875	0		1.5854161376953124	-0.7782951049804687	0		3.064844482421875	-0.17829544067382813	0		4.37444287109375	0.02674633026123047	0		5.8931943359375	0.35464398193359375	0		-0.34179852294921875	5.856705078125	0		
0.0021212708950042723	0.0038483779430389404	0		0.6121163940429688	-2.541781494140625	0		-0.8912017822265625	0.2287613983154297	0		-0.2197488250732422	-2.6076396484375	0		1.593683349609375	-0.7796229858398438	0		3.07224609375	-0.16861224365234376	0		4.376966796875	0.04648944091796875	0		5.89757763671875	0.3350885009765625	0		-0.3415169677734375	5.85647509765625	0		
